<?xml version="1.0" encoding="UTF-8" ?>
<!DOCTYPE svg PUBLIC "-//W3C//DTD SVG 1.1//EN" "http://www.w3.org/Graphics/SVG/1.1/DTD/svg11.dtd">
<svg width="585pt" height="129pt" viewBox="0 0 585 129" version="1.1" xmlns="http://www.w3.org/2000/svg">
<g id="#ffffffff">
</g>
<g id="#242424ff">
<path fill="#242424" opacity="1.00" d=" M 64.08 20.17 C 72.59 18.17 81.90 19.26 89.50 23.69 C 93.53 25.79 96.49 29.33 100.08 32.03 C 103.78 34.01 107.88 35.24 112.06 35.66 C 112.12 33.77 112.20 31.89 112.34 30.00 C 113.52 29.71 114.70 29.44 115.89 29.19 C 117.24 32.68 117.25 37.56 113.55 39.59 C 110.16 40.54 106.65 39.33 103.42 38.32 C 107.60 46.21 107.82 55.54 106.10 64.14 C 104.43 72.12 102.17 80.02 98.67 87.40 C 103.53 87.30 108.39 87.30 113.25 87.40 C 113.42 88.80 113.95 90.38 112.71 91.47 C 107.30 91.92 101.85 91.58 96.42 91.62 C 92.24 100.03 86.32 108.76 76.95 111.77 C 72.61 113.46 67.79 112.25 63.85 110.09 C 56.73 105.89 51.91 98.89 48.29 91.64 C 43.03 91.67 37.77 91.68 32.52 91.63 C 32.12 91.15 31.33 90.17 30.93 89.69 C 31.37 88.91 31.81 88.13 32.25 87.35 C 36.94 87.34 41.63 87.29 46.32 87.40 C 42.37 79.79 40.13 71.45 38.46 63.08 C 36.86 54.82 37.44 46.03 41.17 38.40 C 37.76 39.22 33.96 41.10 30.55 39.31 C 27.33 36.95 28.16 32.64 28.67 29.26 C 29.90 29.54 31.42 29.30 32.37 30.31 C 32.69 32.11 32.71 33.94 32.85 35.76 C 37.08 35.24 41.05 33.65 45.01 32.15 C 50.15 26.56 56.55 21.86 64.08 20.17 M 53.14 29.74 C 57.53 29.49 62.21 29.45 66.08 31.84 C 68.97 33.38 70.81 36.16 72.53 38.84 C 75.53 31.43 84.09 28.46 91.54 29.86 C 84.92 25.51 77.04 22.60 69.01 23.75 C 63.20 24.10 58.18 27.16 53.14 29.74 M 47.74 35.84 C 44.44 41.37 42.21 47.53 41.85 53.99 C 42.76 65.55 46.01 76.83 50.92 87.31 C 52.72 87.34 54.52 87.36 56.32 87.42 C 56.36 85.50 56.27 83.55 56.65 81.66 C 57.93 81.23 59.29 81.32 60.62 81.30 C 60.66 83.37 60.65 85.45 60.60 87.52 L 62.65 87.35 C 62.77 85.28 62.95 83.22 63.30 81.18 C 64.46 81.22 65.60 81.32 66.75 81.47 C 67.85 83.24 67.30 85.45 67.49 87.41 C 70.77 87.31 74.06 87.31 77.34 87.41 C 77.35 85.43 77.41 83.45 77.54 81.47 C 78.89 81.39 80.23 81.33 81.58 81.30 C 81.78 83.31 81.89 85.32 81.96 87.34 C 82.48 87.34 83.52 87.34 84.03 87.34 C 84.11 85.29 84.22 83.25 84.45 81.21 C 85.55 81.26 86.64 81.35 87.73 81.47 C 88.88 83.21 88.28 85.45 88.49 87.41 C 90.26 87.36 92.04 87.34 93.81 87.33 C 97.44 79.75 99.92 71.69 101.78 63.51 C 103.90 54.14 102.51 43.89 97.05 35.87 C 93.77 35.14 90.47 34.14 87.07 34.44 C 80.09 34.30 73.97 41.14 74.66 48.01 C 74.42 50.34 75.56 53.50 72.91 54.82 C 69.20 54.58 70.24 50.60 70.12 48.04 C 70.76 41.22 64.85 34.46 57.93 34.46 C 54.46 34.10 51.09 35.10 47.74 35.84 M 53.13 91.58 C 55.73 95.37 57.90 99.52 61.36 102.63 C 65.03 106.58 70.79 109.41 76.16 107.43 C 83.40 104.80 87.70 97.91 91.46 91.62 C 78.68 91.67 65.90 91.74 53.13 91.58 Z" />
<path fill="#242424" opacity="1.00" d=" M 338.00 36.39 C 343.31 36.15 348.63 35.90 353.95 36.07 C 353.99 50.72 353.97 65.37 353.95 80.02 C 353.93 81.99 354.16 83.95 354.57 85.88 C 355.49 85.92 357.35 85.99 358.27 86.03 C 358.27 88.27 358.27 90.50 358.29 92.74 C 353.94 92.34 349.57 92.42 345.21 92.63 C 345.03 90.99 344.87 89.34 344.72 87.70 C 342.27 90.70 338.86 92.71 334.94 92.92 C 331.03 94.26 326.78 94.88 322.81 93.40 C 315.86 91.76 311.77 84.74 311.06 78.03 C 310.08 69.66 311.20 59.83 318.04 54.06 C 325.28 48.83 336.45 49.06 342.84 55.61 C 342.69 52.22 343.09 48.78 342.48 45.43 C 342.25 43.18 339.57 43.76 338.00 43.25 C 338.01 40.96 338.01 38.68 338.00 36.39 M 328.20 58.25 C 323.64 60.13 322.25 65.56 321.98 70.02 C 321.83 74.90 321.59 80.32 324.49 84.52 C 327.96 88.66 335.18 88.83 338.81 84.78 C 341.69 81.61 342.46 77.16 342.39 73.01 C 342.38 68.56 342.33 63.43 338.92 60.10 C 336.26 57.19 331.70 57.03 328.20 58.25 Z" />
<path fill="#242424" opacity="1.00" d=" M 140.00 37.24 C 145.77 37.24 151.54 37.22 157.31 37.25 C 161.92 48.00 166.58 58.74 171.21 69.48 C 175.82 58.73 180.43 47.98 185.05 37.23 C 190.79 37.24 196.53 37.24 202.27 37.24 C 202.27 39.67 202.27 42.11 202.29 44.54 C 200.05 44.75 196.55 44.80 196.81 47.95 C 196.59 57.63 196.82 67.32 196.71 77.00 C 196.77 79.59 196.47 82.27 197.28 84.78 C 198.72 85.83 200.60 85.65 202.27 85.98 C 202.27 88.40 202.27 90.83 202.27 93.26 C 194.80 93.26 187.33 93.26 179.87 93.26 C 179.87 90.82 179.87 88.40 179.87 85.97 C 181.52 85.68 183.32 85.74 184.81 84.87 C 185.56 83.00 185.37 80.94 185.42 78.97 C 185.36 71.08 185.41 63.19 185.39 55.30 C 181.90 63.36 178.47 71.44 175.00 79.51 C 172.41 79.51 169.82 79.51 167.23 79.50 C 163.73 71.46 160.31 63.39 156.79 55.35 C 156.86 64.56 156.62 73.78 156.89 82.99 C 156.68 86.03 160.50 85.54 162.48 85.98 C 162.48 88.41 162.48 90.83 162.48 93.25 C 154.99 93.26 147.49 93.25 140.00 93.26 C 140.00 90.80 140.00 88.35 140.00 85.90 C 141.72 85.71 143.44 85.47 145.14 85.17 C 146.14 77.17 145.38 69.07 145.62 61.03 C 145.51 56.46 145.85 51.87 145.45 47.32 C 145.28 44.57 141.95 44.89 140.00 44.57 C 140.00 42.12 140.00 39.68 140.00 37.24 Z" />
<path fill="#242424" opacity="1.00" d=" M 219.90 36.24 C 223.88 36.24 227.86 36.23 231.84 36.24 C 231.84 39.33 231.84 42.42 231.84 45.50 C 227.86 45.51 223.88 45.51 219.91 45.51 C 219.90 42.42 219.90 39.33 219.90 36.24 Z" />
<path fill="#242424" opacity="1.00" d=" M 52.46 47.07 C 52.82 46.38 53.53 45.00 53.89 44.30 C 59.14 44.30 63.17 49.16 63.29 54.21 C 58.33 56.22 53.85 51.45 52.46 47.07 Z" />
<path fill="#242424" opacity="1.00" d=" M 81.32 52.88 C 82.48 49.01 85.63 44.69 89.94 44.55 C 92.32 44.26 92.08 47.20 91.67 48.69 C 90.43 52.31 86.88 54.36 83.33 55.18 C 82.83 54.61 81.82 53.45 81.32 52.88 Z" />
<path fill="#242424" opacity="1.00" d=" M 262.95 57.17 C 267.51 52.28 274.32 49.70 280.98 50.64 C 285.59 50.94 290.58 53.37 291.81 58.19 C 294.08 66.88 291.82 76.02 293.25 84.81 C 294.75 85.72 296.57 85.67 298.26 85.99 C 298.25 88.41 298.25 90.83 298.26 93.26 C 292.66 93.26 287.06 93.26 281.47 93.26 C 281.47 84.16 281.48 75.07 281.48 65.98 C 281.38 63.50 281.42 60.33 279.05 58.84 C 274.89 56.33 268.41 58.18 266.91 63.03 C 266.15 66.62 266.63 70.34 266.51 73.99 C 266.62 77.63 266.11 81.35 267.00 84.92 C 268.55 85.65 270.30 85.72 271.98 85.96 C 271.97 88.39 271.97 90.82 271.97 93.25 C 264.50 93.26 257.03 93.25 249.57 93.25 C 249.56 90.83 249.56 88.41 249.57 85.98 C 251.22 85.59 253.22 85.89 254.60 84.72 C 255.67 81.28 255.01 77.59 255.17 74.05 C 254.98 69.41 255.66 64.69 254.69 60.12 C 253.12 59.27 251.28 59.31 249.57 59.02 C 249.57 56.60 249.57 54.17 249.57 51.74 C 253.87 51.74 258.16 51.74 262.46 51.75 C 262.62 53.56 262.78 55.36 262.95 57.17 Z" />
<path fill="#242424" opacity="1.00" d=" M 371.77 60.70 C 374.10 55.39 379.59 52.36 385.01 51.08 C 392.66 49.50 401.62 50.82 407.03 56.91 C 411.36 61.95 411.63 68.94 411.59 75.25 C 401.23 75.29 390.88 75.20 380.52 75.29 C 380.95 78.66 381.28 82.66 384.41 84.71 C 389.08 87.90 395.11 86.88 400.26 85.61 C 400.27 84.83 400.29 83.27 400.29 82.49 C 403.55 82.49 406.81 82.49 410.07 82.49 C 410.07 84.68 410.08 86.87 410.08 89.06 C 403.89 94.02 395.61 94.99 387.94 94.32 C 380.76 93.51 373.18 89.55 370.87 82.26 C 368.72 75.31 368.75 67.40 371.77 60.70 M 384.12 60.18 C 381.29 62.04 380.93 65.65 380.51 68.71 C 387.15 68.77 393.79 68.76 400.43 68.72 C 399.97 65.67 399.84 61.97 397.03 60.04 C 393.19 57.59 387.95 57.82 384.12 60.18 Z" />
<path fill="#242424" opacity="1.00" d=" M 522.14 54.94 C 529.77 50.81 539.04 49.18 547.45 51.72 C 552.38 53.21 555.86 57.95 556.29 63.01 C 556.88 69.86 556.11 76.77 556.67 83.62 C 556.51 85.93 559.49 85.38 560.91 86.11 C 560.90 88.49 560.90 90.87 560.91 93.25 C 557.32 93.26 553.73 93.26 550.14 93.25 C 549.80 91.57 549.45 89.89 549.11 88.22 C 544.21 93.96 536.15 95.03 529.06 94.18 C 525.06 93.74 520.89 91.62 519.36 87.70 C 517.34 82.57 518.56 75.54 523.76 72.78 C 530.23 69.20 537.98 70.10 545.09 69.24 C 544.85 66.17 545.66 62.71 544.01 59.96 C 540.69 56.90 535.73 58.45 531.94 59.67 C 531.94 60.50 531.94 62.17 531.94 63.00 C 528.67 63.00 525.40 63.00 522.14 63.00 C 522.14 60.31 522.14 57.63 522.14 54.94 M 532.08 77.17 C 527.98 78.37 528.05 85.31 532.07 86.60 C 535.61 87.60 539.90 87.39 542.82 84.92 C 545.41 82.62 544.97 78.89 545.15 75.77 C 540.79 76.20 536.34 76.08 532.08 77.17 Z" />
<path fill="#242424" opacity="1.00" d=" M 214.71 51.74 C 220.36 51.74 226.01 51.75 231.66 51.74 C 231.66 60.84 231.70 69.94 231.65 79.04 C 231.67 80.98 231.58 82.96 232.14 84.85 C 233.65 85.70 235.43 85.69 237.11 85.97 C 237.11 88.40 237.11 90.82 237.10 93.25 C 229.64 93.26 222.17 93.25 214.71 93.26 C 214.71 90.83 214.71 88.40 214.71 85.97 C 216.39 85.65 218.27 85.78 219.76 84.81 C 220.74 81.62 220.22 78.23 220.33 74.96 C 220.18 70.33 220.67 65.65 220.05 61.05 C 219.46 58.67 216.47 59.52 214.71 59.06 C 214.71 56.62 214.71 54.18 214.71 51.74 Z" />
<path fill="#242424" opacity="1.00" d=" M 424.87 51.74 C 429.80 51.74 434.74 51.74 439.68 51.75 C 440.00 53.16 440.33 54.57 440.65 55.99 C 444.51 51.75 450.49 51.49 455.82 51.71 C 455.83 54.22 455.83 56.74 455.83 59.25 C 452.06 59.47 447.86 58.48 444.46 60.56 C 441.34 63.06 441.86 67.43 441.81 70.98 C 442.01 75.59 441.36 80.28 442.28 84.83 C 443.78 85.73 445.59 85.68 447.27 85.99 C 447.27 88.41 447.27 90.83 447.27 93.26 C 439.80 93.26 432.33 93.26 424.87 93.26 C 424.86 90.82 424.86 88.39 424.87 85.96 C 426.55 85.69 428.35 85.72 429.89 84.88 C 430.96 81.34 430.34 77.59 430.49 73.95 C 430.30 69.33 430.97 64.62 430.01 60.05 C 428.40 59.31 426.59 59.28 424.87 59.05 C 424.87 56.61 424.87 54.18 424.87 51.74 Z" />
<path fill="#242424" opacity="1.00" d=" M 464.38 51.75 C 468.96 51.74 473.55 51.75 478.14 51.74 C 481.28 61.65 484.42 71.56 487.55 81.47 C 490.71 71.56 493.84 61.65 496.99 51.75 C 501.58 51.74 506.16 51.74 510.75 51.75 C 510.75 54.18 510.75 56.62 510.75 59.05 C 508.96 59.44 506.92 59.20 505.34 60.24 C 504.46 61.51 503.98 62.99 503.45 64.42 C 500.04 74.05 496.54 83.64 493.09 93.26 C 489.40 93.26 485.71 93.26 482.03 93.26 C 478.13 82.70 474.47 72.06 470.46 61.55 C 469.73 58.82 466.49 59.46 464.38 59.07 C 464.37 56.63 464.37 54.19 464.38 51.75 Z" />
</g>
</svg>
