<?xml version="1.0" encoding="UTF-8" ?>
<!DOCTYPE svg PUBLIC "-//W3C//DTD SVG 1.1//EN" "http://www.w3.org/Graphics/SVG/1.1/DTD/svg11.dtd">
<svg width="585pt" height="129pt" viewBox="0 0 585 129" version="1.1" xmlns="http://www.w3.org/2000/svg">
<g id="#3d3d3dff">
</g>
<g id="#ffffffff">
<path fill="#ffffff" opacity="1.00" d=" M 62.08 20.87 C 70.34 18.52 79.20 19.14 87.03 22.65 C 89.25 23.96 91.47 25.27 93.64 26.68 L 93.66 26.87 C 95.72 28.57 97.66 30.42 99.55 32.31 C 102.00 33.26 104.47 34.20 106.86 35.29 C 108.66 35.46 110.46 35.62 112.27 35.78 C 112.38 34.11 112.25 32.39 112.65 30.76 C 113.48 30.11 114.37 29.54 115.25 28.96 C 116.89 31.78 116.58 35.02 115.53 37.99 C 111.96 41.10 107.12 39.10 103.14 38.09 C 108.37 48.56 107.28 60.85 103.98 71.74 C 103.28 74.09 102.59 76.45 101.90 78.81 C 101.22 80.50 100.50 82.17 99.75 83.84 C 99.47 85.07 99.19 86.31 98.91 87.55 C 103.50 87.54 108.09 87.55 112.68 87.55 L 112.89 87.94 C 112.82 89.10 112.73 90.27 112.63 91.44 C 106.85 91.47 101.07 91.45 95.29 91.45 L 95.89 93.20 C 95.52 93.28 94.77 93.43 94.39 93.51 C 94.44 93.84 94.53 94.50 94.57 94.83 C 92.97 97.18 91.41 99.55 89.91 101.97 C 87.34 105.10 84.20 107.68 80.87 109.95 C 77.98 110.97 75.10 112.39 71.99 112.39 C 69.46 112.00 67.05 111.15 64.63 110.37 L 64.32 110.06 C 60.42 107.64 57.00 104.51 54.10 100.95 C 53.45 99.92 52.79 98.89 52.13 97.86 C 50.88 95.78 49.76 93.63 48.68 91.45 C 43.22 91.45 37.75 91.45 32.29 91.46 C 31.99 90.25 31.72 89.03 31.49 87.80 L 32.30 87.57 C 36.95 87.52 41.60 87.57 46.25 87.53 C 42.08 76.78 38.15 65.66 37.82 54.01 C 38.13 49.98 38.30 45.82 40.14 42.12 C 40.48 40.82 40.81 39.51 41.13 38.21 C 37.03 39.42 31.74 41.19 28.63 37.10 C 28.47 34.91 28.44 32.71 28.45 30.52 L 29.72 30.46 L 29.61 28.98 C 30.31 29.45 31.69 30.39 32.38 30.86 C 32.44 32.55 32.49 34.23 32.56 35.92 C 37.04 35.49 41.47 34.24 45.43 32.08 C 48.70 29.33 51.50 25.97 55.38 23.99 L 55.79 23.36 C 56.04 23.35 56.55 23.33 56.81 23.32 C 58.54 22.44 60.31 21.66 62.08 20.87 M 54.42 29.77 C 58.38 29.69 62.59 29.80 66.05 31.99 C 68.87 33.62 70.69 36.39 72.56 38.96 C 75.44 31.92 83.32 28.99 90.47 29.71 C 80.61 21.26 64.23 21.20 54.42 29.77 M 47.65 35.69 C 43.80 42.30 40.82 50.01 42.10 57.77 C 43.22 68.07 46.49 78.04 50.78 87.43 C 52.66 87.46 54.53 87.49 56.40 87.56 C 56.36 85.30 56.55 83.03 57.51 80.96 C 58.27 81.17 59.80 81.60 60.57 81.81 C 60.54 83.77 60.51 85.72 60.45 87.68 C 61.05 87.62 62.23 87.49 62.83 87.43 C 62.98 85.46 63.16 83.51 63.33 81.55 C 64.43 81.45 65.53 81.35 66.63 81.26 C 67.08 83.32 67.32 85.42 67.48 87.53 C 70.80 87.43 74.13 87.43 77.46 87.54 C 77.48 85.84 77.37 84.11 77.64 82.42 C 78.36 81.03 80.17 81.56 81.43 81.24 C 81.65 83.31 81.76 85.40 81.82 87.48 C 82.42 87.48 83.61 87.49 84.21 87.49 C 84.25 85.54 84.31 83.59 84.43 81.65 C 85.49 81.50 86.55 81.35 87.61 81.21 C 88.07 83.30 88.32 85.42 88.49 87.55 C 90.31 87.49 92.14 87.46 93.97 87.42 C 97.34 80.29 99.80 72.78 101.59 65.10 C 104.09 55.24 103.00 44.26 97.19 35.73 C 93.56 34.85 89.84 33.93 86.07 34.39 C 81.83 34.59 77.93 37.33 76.03 41.09 C 73.65 44.67 74.75 49.12 74.55 53.15 C 73.80 53.68 73.05 54.21 72.31 54.74 C 71.62 54.22 70.92 53.69 70.23 53.16 C 70.24 50.06 70.23 46.95 70.26 43.85 C 68.46 40.75 66.75 37.23 63.31 35.65 C 58.41 33.24 52.71 34.44 47.65 35.69 M 52.94 91.49 C 56.41 97.68 60.70 103.56 66.88 107.28 C 69.83 107.95 72.99 108.94 75.95 107.74 C 82.45 105.53 86.69 99.67 90.28 94.15 C 90.50 93.49 90.95 92.18 91.17 91.52 C 78.43 91.49 65.68 91.55 52.94 91.49 Z" />
<path fill="#ffffff" opacity="1.00" d=" M 338.21 36.20 C 343.35 36.35 348.50 36.31 353.64 36.23 C 353.47 47.48 353.61 58.74 353.57 69.99 C 353.62 75.43 353.34 80.89 353.95 86.30 C 355.29 86.29 356.63 86.28 357.98 86.27 C 357.99 88.22 358.00 90.16 358.01 92.11 C 353.91 91.98 349.82 92.00 345.73 92.06 C 345.39 90.55 345.06 89.04 344.72 87.54 C 341.75 89.93 338.55 92.14 334.62 92.41 C 332.40 92.98 330.20 93.80 327.90 93.98 C 324.93 93.71 322.13 92.63 319.33 91.68 C 317.04 89.29 314.22 87.17 313.07 83.94 C 310.03 75.86 310.40 66.31 314.70 58.75 C 318.22 52.30 326.33 50.00 333.22 51.16 C 336.86 51.50 339.71 53.96 342.91 55.47 C 343.06 51.50 343.11 47.51 342.69 43.55 C 341.25 43.30 339.81 43.06 338.38 42.84 C 338.37 40.62 338.32 38.41 338.21 36.20 M 326.78 58.66 C 323.64 60.68 322.53 64.58 321.85 68.04 C 321.56 73.16 321.12 78.68 323.51 83.40 C 326.75 89.63 337.15 89.32 340.34 83.15 C 343.79 76.91 342.83 69.24 341.34 62.56 C 339.81 60.85 338.20 59.22 336.52 57.67 C 333.29 57.53 329.67 56.77 326.78 58.66 Z" />
<path fill="#ffffff" opacity="1.00" d=" M 220.28 36.80 C 223.95 36.83 227.63 36.82 231.30 36.82 C 231.30 39.55 231.30 42.29 231.30 45.03 C 227.63 45.03 223.96 45.02 220.29 45.03 C 220.29 42.28 220.29 39.54 220.28 36.80 Z" />
<path fill="#ffffff" opacity="1.00" d=" M 140.28 37.80 C 145.86 37.84 151.44 37.81 157.01 37.82 C 160.89 47.04 165.02 56.16 168.87 65.40 C 169.49 66.96 170.35 68.42 171.43 69.71 C 176.53 59.25 180.50 48.28 185.52 37.78 C 191.01 37.85 196.50 37.81 202.00 37.82 C 202.00 39.89 202.00 41.95 202.00 44.02 C 200.25 44.28 198.51 44.57 196.77 44.85 C 195.50 53.49 196.43 62.26 196.15 70.95 C 196.35 75.37 195.64 79.89 196.61 84.23 C 197.26 86.52 200.25 85.77 202.02 86.41 C 202.00 88.57 201.97 90.72 201.90 92.88 C 194.70 93.13 187.50 92.94 180.30 93.00 C 180.29 90.75 180.27 88.50 180.22 86.25 C 181.97 85.76 184.67 86.54 185.41 84.37 C 186.24 82.74 185.84 80.81 185.97 79.05 C 185.81 71.47 186.20 63.87 185.73 56.29 C 184.67 57.09 183.62 57.96 183.18 59.26 C 180.11 65.65 177.86 72.43 174.62 78.73 C 172.28 79.17 169.88 79.02 167.52 79.06 C 164.81 72.54 161.96 66.08 159.22 59.57 C 158.74 58.14 157.58 57.16 156.43 56.27 C 155.95 63.18 156.34 70.11 156.19 77.02 C 156.28 79.62 155.85 82.37 156.86 84.84 C 158.24 86.15 160.30 85.98 162.03 86.43 C 162.00 88.58 161.97 90.73 161.89 92.89 C 154.70 93.12 147.49 92.95 140.30 93.00 C 140.29 90.71 140.28 88.43 140.25 86.14 C 142.02 86.00 143.80 85.83 145.57 85.64 C 146.46 77.47 145.79 69.23 145.99 61.04 C 145.83 55.63 146.50 50.14 145.38 44.81 C 143.68 44.54 141.99 44.28 140.29 44.05 C 140.29 41.96 140.29 39.88 140.28 37.80 Z" />
<path fill="#ffffff" opacity="1.00" d=" M 88.80 44.29 C 89.78 44.70 90.77 45.09 91.72 45.57 C 92.56 50.59 87.71 53.99 83.42 55.09 C 82.94 54.47 81.98 53.23 81.51 52.61 C 82.71 48.91 85.52 46.22 88.80 44.29 Z" />
<path fill="#ffffff" opacity="1.00" d=" M 60.79 54.70 C 56.13 53.95 51.83 49.30 53.49 44.38 C 57.04 44.59 60.50 46.47 62.05 49.76 C 63.07 51.40 63.56 54.78 60.79 54.70 Z" />
<path fill="#ffffff" opacity="1.00" d=" M 269.24 52.84 C 276.31 50.03 285.62 49.76 290.76 56.29 C 293.69 65.19 291.37 74.72 292.54 83.85 C 292.85 86.45 296.19 85.80 298.02 86.42 C 298.00 88.57 297.97 90.73 297.90 92.88 C 292.64 93.07 287.37 93.06 282.11 92.89 C 281.43 82.04 282.86 71.06 281.28 60.29 C 280.31 59.39 279.35 58.49 278.40 57.58 C 274.01 56.61 269.39 57.85 266.59 61.48 C 265.64 69.46 265.83 77.59 266.44 85.59 C 268.16 85.81 269.88 85.99 271.61 86.16 C 271.58 88.44 271.57 90.72 271.56 93.00 C 264.41 92.95 257.26 93.12 250.11 92.89 C 250.03 90.72 249.99 88.56 249.97 86.40 C 251.72 86.07 253.48 85.75 255.23 85.36 C 256.10 77.58 255.77 69.71 255.57 61.91 C 255.79 58.78 252.08 59.06 249.98 58.58 C 249.99 56.42 250.03 54.27 250.10 52.12 C 253.97 51.95 257.85 51.97 261.72 52.06 C 262.01 53.87 262.30 55.67 262.61 57.48 C 264.88 56.02 267.08 54.46 269.24 52.84 Z" />
<path fill="#ffffff" opacity="1.00" d=" M 385.42 51.43 C 392.84 49.95 401.59 51.34 406.71 57.38 C 410.78 62.16 411.45 68.84 410.91 74.88 C 400.57 75.22 390.23 74.79 379.90 75.12 C 380.53 78.83 380.93 83.28 384.57 85.37 C 389.41 88.19 395.45 87.08 400.67 86.05 C 400.74 85.28 400.86 83.75 400.93 82.98 C 403.85 82.97 406.78 82.97 409.71 82.97 C 409.71 84.90 409.71 86.83 409.73 88.76 C 409.27 89.07 408.35 89.71 407.89 90.03 C 401.65 93.83 394.08 94.69 386.95 93.78 C 380.83 92.53 374.19 89.49 371.81 83.29 C 369.08 76.26 369.17 68.02 372.11 61.07 C 374.37 55.66 380.05 52.84 385.42 51.43 M 384.09 60.10 C 381.19 62.00 380.84 65.69 380.43 68.82 C 387.12 68.91 393.81 68.89 400.50 68.83 C 400.06 65.92 400.00 62.52 397.63 60.41 C 393.80 57.42 388.12 57.62 384.09 60.10 Z" />
<path fill="#ffffff" opacity="1.00" d=" M 522.66 55.18 C 531.33 50.67 542.27 49.00 551.15 53.92 C 553.66 56.65 555.73 60.04 555.94 63.83 C 556.35 71.10 555.47 78.43 556.46 85.66 C 557.45 85.78 559.45 86.02 560.44 86.13 C 560.42 88.42 560.41 90.71 560.41 93.00 C 557.09 93.00 553.78 93.00 550.46 93.00 C 550.14 91.14 549.79 89.28 549.42 87.43 C 547.74 88.71 546.15 90.10 544.60 91.53 C 539.02 93.98 532.57 94.89 526.66 93.19 C 522.25 91.98 518.63 87.75 518.94 83.05 C 518.48 78.45 521.45 74.38 525.33 72.23 C 531.84 70.22 538.72 69.98 545.48 69.80 C 545.58 66.06 545.62 62.22 544.23 58.67 C 540.05 57.64 535.65 57.74 531.59 59.17 C 531.56 60.36 531.54 61.56 531.53 62.75 C 528.56 62.70 525.60 62.70 522.64 62.73 C 522.67 60.21 522.68 57.70 522.66 55.18 M 531.84 76.80 C 531.30 77.14 530.22 77.81 529.68 78.15 C 529.31 80.19 527.88 82.60 529.36 84.50 C 531.69 88.50 537.46 87.83 541.14 86.35 C 545.38 84.48 545.57 79.47 545.43 75.50 C 540.88 75.70 536.35 76.21 531.84 76.80 Z" />
<path fill="#ffffff" opacity="1.00" d=" M 215.10 52.12 C 220.43 51.90 225.77 52.03 231.10 52.00 C 231.37 63.19 230.52 74.43 231.59 85.58 C 233.31 85.80 235.03 86.00 236.76 86.16 C 236.72 88.44 236.71 90.72 236.70 93.00 C 229.50 92.94 222.30 93.13 215.10 92.88 C 215.02 90.72 215.00 88.56 214.98 86.40 C 216.52 86.12 218.09 85.98 219.60 85.53 C 221.00 84.06 220.87 81.92 220.92 80.04 C 220.91 75.37 220.88 70.70 220.92 66.02 C 220.85 63.80 221.17 61.29 219.68 59.43 C 218.14 59.01 216.55 58.87 214.98 58.62 C 215.00 56.45 215.03 54.28 215.10 52.12 Z" />
<path fill="#ffffff" opacity="1.00" d=" M 425.30 52.00 C 429.93 52.00 434.56 52.00 439.19 52.00 C 439.58 53.48 439.94 54.96 440.36 56.43 C 444.56 52.95 449.88 51.64 455.27 51.90 C 455.27 54.26 455.27 56.63 455.27 59.00 C 451.45 59.35 446.80 57.92 443.60 60.58 C 440.66 63.59 441.43 68.20 441.25 72.03 C 441.45 76.31 440.75 80.71 441.83 84.90 C 443.17 86.23 445.32 85.92 447.02 86.42 C 447.00 88.58 446.97 90.73 446.89 92.89 C 439.69 93.12 432.49 92.95 425.30 93.00 C 425.29 90.72 425.28 88.43 425.25 86.15 C 426.96 86.00 428.68 85.82 430.40 85.62 C 431.38 76.93 431.18 68.07 430.55 59.35 C 428.78 59.16 427.01 59.00 425.25 58.86 C 425.28 56.57 425.29 54.29 425.30 52.00 Z" />
<path fill="#ffffff" opacity="1.00" d=" M 464.93 52.00 C 469.16 52.00 473.38 52.00 477.61 52.00 C 481.12 61.83 483.61 72.00 487.40 81.73 C 491.74 72.22 493.94 61.86 497.43 52.01 C 501.67 51.99 505.92 52.00 510.17 52.00 C 510.16 54.27 510.17 56.53 510.19 58.80 C 508.07 59.09 505.12 58.62 504.28 61.19 C 500.00 71.65 496.72 82.50 492.54 93.01 C 489.17 93.00 485.81 93.00 482.45 92.99 C 478.70 82.53 474.88 72.11 471.11 61.66 C 470.87 61.10 470.38 59.96 470.14 59.39 C 468.41 59.17 466.66 59.00 464.93 58.86 C 464.93 56.57 464.93 54.29 464.93 52.00 Z" />
</g>
</svg>
